<svg id="Layer_1" enable-background="new 0 0 511.265 511.265" height="512" viewBox="0 0 511.265 511.265" width="512" xmlns="http://www.w3.org/2000/svg"><g><path d="m88.581 260.62c-27.016-10.94-57.712-10.454-77.415-8.442-2.723 11.369-4.175 23.232-4.175 35.436 0 36.13 12.648 69.302 33.748 95.347 9.466-9.972 23.431-19.687 44.051-26.304 27.831-8.929 54.428-8.066 75.824-4.12 1.088-8.064 3.229-15.201 6.067-21.501-17.354-23.879-46.092-57.456-78.1-70.416z"/><path d="m185.471 305.642c7.665-6.847 16.688-11.829 26.37-14.802.922-6.957 1.588-15.664 1.23-25.304-1.137-30.599-11.608-56.008-31.123-75.522-20.194-20.194-44.448-33.719-72.087-40.198-3.518-.825-6.867-1.474-10.015-1.989-33.905 14.263-61.529 40.502-77.586 73.42 22.19-.995 50.877.753 77.58 11.567 35.204 14.254 65.589 46.983 85.48 72.965.052-.045.101-.092.151-.137z"/><path d="m158.57 136.025c14.796 7.681 30.065 18.249 44.591 32.776 24.948 24.947 38.755 58.404 39.928 96.755.241 7.893-.078 15.234-.671 21.748 71.181-4.69 127.467-63.901 127.467-136.269v-15.01h-211.305c-.003 0-.006 0-.01 0zm125.422 47.267c9.169 0 16.601 7.433 16.601 16.601s-7.433 16.601-16.601 16.601c-9.169 0-16.601-7.433-16.601-16.601s7.433-16.601 16.601-16.601z"/><path d="m162.113 383.575c-18.483-4.31-42.958-6.439-68.157 1.648-13.91 4.463-24.655 10.862-32.138 19.078 26.253 21.794 59.975 34.901 96.762 34.901l32.745 1.459c6.945.309 9.871-8.702 4.083-12.552-13.64-9.072-27.859-23.248-33.295-44.534z"/><path d="m360.362 413.826c-.546-13.258-7.187-25.089-18.221-32.461-12.584-8.408-28.705-9.223-42.066-2.129l-70.608 37.465c9.863 6.046 15.545 17.527 13.89 29.624-1.27 9.28-6.769 17.03-14.338 21.562l69.78 38.316c6.177 3.392 12.978 5.063 19.755 5.063 8.808 0 17.574-2.824 24.867-8.366l1.518-1.153c10.389-7.895 16.301-19.906 16.22-32.954-.063-10.132-3.73-19.593-10.275-26.951 6.515-7.748 9.908-17.598 9.478-28.016z"/><path d="m428.76 0h-366.128c-8.284 0-15 6.716-15 15s6.716 15 15 15h366.128c25.096 0 45.513 20.417 45.513 45.513 0 16.216-8.531 30.469-21.334 38.532-7.717-34.372-38.46-60.137-75.127-60.137h-151.886c-8.284 0-15 6.716-15 15s6.716 15 15 15h151.885c22.529 0 41.398 15.932 45.956 37.118h-27.904c2.554 4.414 4.023 9.534 4.023 15v15h20.057c-4.581 8.879-12.102 15.99-21.256 20.081-1.351 11.274-3.839 22.33-7.465 33.083 30.577-4.326 55.196-27.406 61.823-57.194 29.756-10.137 51.229-38.341 51.229-71.484-.001-41.637-33.876-75.512-75.514-75.512z"/></g></svg>